<svg width="429" height="108" viewBox="0 0 429 108" fill="none" xmlns="http://www.w3.org/2000/svg">
<g clip-path="url(#clip0_1904_324)">
<path d="M31.1303 24.3476C39.7861 16.4659 49.9187 12.8401 61.5668 13.5087C73.4203 14.1902 82.8081 19.6932 90.8089 28.6548C93.6471 25.6076 96.2156 22.8433 98.9767 19.886C98.707 19.5389 98.4116 19.1917 98.1291 18.8574L96.267 19.3203L96.6779 17.186C91.1428 11.1172 84.2079 6.71996 76.708 4.05846L74.6532 6.7071L75.2183 3.56987C69.9914 1.87268 64.5334 1.01123 59.0882 0.972656L58.2791 4.76562L56.8408 0.998371C50.4067 1.22981 44.0626 2.61842 38.2835 5.18991C38.0523 5.29277 37.834 5.42135 37.6157 5.52421L37.834 7.94142L36.1773 6.34709L26.6483 12.5058L30.1414 21.7761C30.3726 22.6375 30.6936 23.4861 31.1046 24.3219L31.1303 24.3476Z" fill="#FF0001"/>
<path d="M44.7818 21.0175C41.3272 22.6633 38.9641 24.0904 37.4102 25.6205V25.389L33.0438 28.5648L38.5018 40.0594C38.5403 40.1237 38.566 40.188 38.6174 40.278C50.5608 25.6976 68.5659 27.6391 78.3261 39.5837C81.2542 36.8065 84.1694 34.0421 87.0333 31.3163C77.3629 18.1631 59.5891 13.9716 44.7818 21.0175Z" fill="#FF0001"/>
<path d="M88.4845 82.4249C80.3295 90.8208 70.4409 95.0638 58.7671 95.1024C46.9008 95.141 37.1791 90.2294 28.6517 81.782C26.0062 84.9964 23.6046 87.915 21.0362 91.0394C21.3315 91.3737 21.6397 91.6951 21.948 92.0166L23.7716 91.438L23.489 93.5852C29.3837 99.3068 36.5755 103.267 44.2295 105.466L46.1174 102.701L45.7449 105.877C51.0617 107.227 56.5711 107.754 62.0034 107.458L62.5813 103.627L64.238 107.291C70.6464 106.661 76.8878 104.9 82.4999 101.968C82.7311 101.853 82.9365 101.711 83.142 101.583L82.7696 99.1911L84.5162 100.683L93.6471 93.9452L89.5889 84.9064C89.3064 84.0578 88.9339 83.2349 88.4716 82.4249H88.4845Z" fill="#FF0001"/>
<path d="M40.4539 70.1074C37.7056 73.0646 34.9573 76.009 32.2604 78.9019C42.727 91.438 60.7192 94.5366 75.0641 86.5779C78.416 84.7264 86.3141 78.3233 86.3141 78.3233L80.1626 67.1888C80.1112 67.1245 80.0855 67.0602 80.0341 66.983C69.0025 82.2706 50.9076 81.4349 40.441 70.1074H40.4539Z" fill="#FF0001"/>
<path d="M23.2964 15.3216C20.4839 18.1374 18.0824 20.9789 16.0661 23.8204L19.2125 26.8034L15.0259 25.3248C10.942 31.4578 8.55333 37.5522 7.35899 43.4152L10.3641 45.0224L7.01224 45.3439C5.88211 52.3641 6.42149 58.9985 7.74426 64.8616L14.4352 64.3858L8.15522 66.5716C9.86326 73.1932 12.496 78.7219 14.6792 82.5535L17.7485 79.9048L15.4497 83.8649C17.1963 86.7707 18.4934 88.4165 18.4934 88.4165L42.1105 54.8584L23.2836 15.3216H23.2964Z" fill="#FF0001"/>
<path d="M112.122 53.9772C112.122 50.6311 112.814 47.6551 114.197 45.049C115.613 42.4107 117.608 40.3677 120.182 38.9199C122.756 37.4399 125.716 36.6999 129.062 36.6999C133.309 36.6999 136.88 37.8421 139.776 40.1264C142.671 42.3786 144.537 45.4512 145.374 49.3442H135.191C134.579 48.0572 133.727 47.0759 132.633 46.4003C131.571 45.7246 130.333 45.3868 128.917 45.3868C126.729 45.3868 124.976 46.1751 123.656 47.7516C122.369 49.2959 121.726 51.3711 121.726 53.9772C121.726 56.6155 122.369 58.7229 123.656 60.2994C124.976 61.8437 126.729 62.6159 128.917 62.6159C130.333 62.6159 131.571 62.2781 132.633 61.6024C133.727 60.9268 134.579 59.9455 135.191 58.6585H145.374C144.537 62.5515 142.671 65.6402 139.776 67.9246C136.88 70.1767 133.309 71.3028 129.062 71.3028C125.716 71.3028 122.756 70.5789 120.182 69.1311C117.608 67.6511 115.613 65.6081 114.197 63.002C112.814 60.3637 112.122 57.3555 112.122 53.9772ZM172.922 37.0377V44.5664H159.312V50.5507H169.35V57.7416H159.312V71.0615H149.853V37.0377H172.922ZM202.532 37.0377V44.5664H193.459V71.0615H184V44.5664H175.023V37.0377H202.532ZM204.873 53.9772C204.873 50.6311 205.565 47.6551 206.948 45.049C208.364 42.4107 210.359 40.3677 212.933 38.9199C215.507 37.4399 218.467 36.6999 221.813 36.6999C226.06 36.6999 229.631 37.8421 232.527 40.1264C235.422 42.3786 237.288 45.4512 238.125 49.3442H227.942C227.331 48.0572 226.478 47.0759 225.384 46.4003C224.322 45.7246 223.084 45.3868 221.668 45.3868C219.48 45.3868 217.727 46.1751 216.408 47.7516C215.121 49.2959 214.477 51.3711 214.477 53.9772C214.477 56.6155 215.121 58.7229 216.408 60.2994C217.727 61.8437 219.48 62.6159 221.668 62.6159C223.084 62.6159 224.322 62.2781 225.384 61.6024C226.478 60.9268 227.331 59.9455 227.942 58.6585H238.125C237.288 62.5515 235.422 65.6402 232.527 67.9246C229.631 70.1767 226.06 71.3028 221.813 71.3028C218.467 71.3028 215.507 70.5789 212.933 69.1311C210.359 67.6511 208.364 65.6081 206.948 63.002C205.565 60.3637 204.873 57.3555 204.873 53.9772ZM265.909 59.3824C267.217 59.6184 268.311 60.2618 269.191 61.3129C270.091 62.3639 270.542 63.5972 270.542 65.0128C270.542 66.1711 270.263 67.2114 269.705 68.1337C269.169 69.0346 268.354 69.7531 267.26 70.2894C266.188 70.8041 264.879 71.0615 263.335 71.0615H256.16V48.4755H263.206C265.458 48.4755 267.153 49.001 268.29 50.052C269.448 51.0816 270.027 52.4222 270.027 54.0737C270.027 55.5108 269.641 56.6798 268.869 57.5807C268.097 58.4601 267.11 59.0607 265.909 59.3824ZM257.608 58.7389H263.271C264.965 58.7389 266.263 58.3421 267.164 57.5485C268.086 56.7334 268.547 55.6181 268.547 54.2024C268.547 52.8297 268.097 51.7465 267.196 50.9529C266.295 50.1593 264.933 49.7625 263.11 49.7625H257.608V58.7389ZM263.238 69.8067C265.062 69.8067 266.488 69.3778 267.518 68.5198C268.569 67.6404 269.094 66.4392 269.094 64.9163C269.094 63.4149 268.558 62.2244 267.485 61.345C266.434 60.4442 264.987 59.9937 263.142 59.9937H257.608V69.8067H263.238ZM276.24 57.1946C276.669 55.9077 277.43 54.9317 278.524 54.2668C279.618 53.5804 281.012 53.2372 282.707 53.2372V54.7494H282.224C280.508 54.7494 279.082 55.2427 277.945 56.2294C276.808 57.1946 276.24 58.7818 276.24 60.9911V71.0615H274.792V53.5911H276.24V57.1946ZM285.14 62.3102C285.14 60.5085 285.493 58.932 286.201 57.5807C286.931 56.2294 287.928 55.1891 289.193 54.4598C290.48 53.7306 291.939 53.3659 293.569 53.3659C295.414 53.3659 296.979 53.8164 298.266 54.7172C299.553 55.6181 300.454 56.7656 300.969 58.1598V53.5911H302.417V71.0615H300.969V66.4607C300.454 67.8763 299.543 69.0453 298.234 69.9676C296.947 70.8685 295.392 71.3189 293.569 71.3189C291.939 71.3189 290.48 70.9543 289.193 70.225C287.928 69.4743 286.931 68.4233 286.201 67.072C285.493 65.6992 285.14 64.112 285.14 62.3102ZM300.969 62.3102C300.969 60.7873 300.647 59.4468 300.004 58.2885C299.382 57.1088 298.524 56.2079 297.43 55.5859C296.336 54.9424 295.113 54.6207 293.762 54.6207C292.346 54.6207 291.102 54.9317 290.03 55.5537C288.957 56.1543 288.121 57.0337 287.52 58.192C286.92 59.3503 286.619 60.723 286.619 62.3102C286.619 63.8975 286.92 65.2702 287.52 66.4285C288.121 67.5868 288.957 68.4769 290.03 69.0989C291.124 69.7209 292.368 70.032 293.762 70.032C295.113 70.032 296.336 69.7209 297.43 69.0989C298.545 68.4554 299.414 67.5546 300.036 66.3963C300.658 65.2166 300.969 63.8546 300.969 62.3102ZM315.571 53.2372C317.652 53.2372 319.346 53.8807 320.655 55.1677C321.963 56.4332 322.617 58.3207 322.617 60.8302V71.0615H321.202V60.9268C321.202 58.8462 320.676 57.259 319.625 56.165C318.574 55.0497 317.148 54.492 315.346 54.492C313.458 54.492 311.946 55.0926 310.809 56.2937C309.694 57.4949 309.136 59.2752 309.136 61.6346V71.0615H307.689V53.5911H309.136V57.2911C309.63 55.9827 310.445 54.9853 311.582 54.299C312.74 53.5911 314.07 53.2372 315.571 53.2372ZM326.834 62.3102C326.834 60.5085 327.187 58.932 327.895 57.5807C328.625 56.2294 329.622 55.1891 330.887 54.4598C332.174 53.7306 333.633 53.3659 335.263 53.3659C337.043 53.3659 338.588 53.8164 339.896 54.7172C341.204 55.5966 342.127 56.7442 342.663 58.1598V47.2529H344.111V71.0615H342.663V66.4285C342.148 67.8656 341.247 69.0453 339.96 69.9676C338.673 70.8685 337.108 71.3189 335.263 71.3189C333.633 71.3189 332.174 70.9543 330.887 70.225C329.622 69.4743 328.625 68.4233 327.895 67.072C327.187 65.6992 326.834 64.112 326.834 62.3102ZM342.663 62.3102C342.663 60.7873 342.341 59.4468 341.698 58.2885C341.076 57.1088 340.218 56.2079 339.124 55.5859C338.03 54.9424 336.807 54.6207 335.456 54.6207C334.04 54.6207 332.796 54.9317 331.724 55.5537C330.651 56.1543 329.815 57.0337 329.214 58.192C328.614 59.3503 328.313 60.723 328.313 62.3102C328.313 63.8975 328.614 65.2702 329.214 66.4285C329.815 67.5868 330.651 68.4769 331.724 69.0989C332.818 69.7209 334.062 70.032 335.456 70.032C336.807 70.032 338.03 69.7209 339.124 69.0989C340.239 68.4554 341.108 67.5546 341.73 66.3963C342.352 65.2166 342.663 63.8546 342.663 62.3102ZM361.866 48.4755V49.6981H355.431V71.0615H353.983V49.6981H347.549V48.4755H361.866ZM381.045 61.152C381.045 61.9242 381.024 62.5033 380.981 62.8894H365.892C365.934 64.4552 366.278 65.7743 366.921 66.8468C367.565 67.9192 368.412 68.7236 369.463 69.2598C370.514 69.796 371.661 70.0641 372.905 70.0641C374.621 70.0641 376.058 69.6459 377.217 68.8094C378.375 67.9514 379.104 66.7931 379.405 65.3346H380.917C380.574 67.1149 379.694 68.5627 378.278 69.678C376.863 70.772 375.072 71.3189 372.905 71.3189C371.275 71.3189 369.817 70.9543 368.53 70.225C367.243 69.4957 366.235 68.4554 365.505 67.1041C364.776 65.7314 364.412 64.1334 364.412 62.3102C364.412 60.4871 364.765 58.8998 365.473 57.5485C366.203 56.1972 367.211 55.1677 368.498 54.4598C369.785 53.7306 371.254 53.3659 372.905 53.3659C374.578 53.3659 376.026 53.7306 377.249 54.4598C378.493 55.1677 379.437 56.1221 380.08 57.3233C380.724 58.503 381.045 59.7792 381.045 61.152ZM379.598 61.6989C379.662 60.1546 379.383 58.8462 378.761 57.7737C378.16 56.7013 377.335 55.9077 376.284 55.3929C375.233 54.8566 374.096 54.5885 372.873 54.5885C371.651 54.5885 370.514 54.8566 369.463 55.3929C368.433 55.9077 367.586 56.7013 366.921 57.7737C366.278 58.8462 365.934 60.1546 365.892 61.6989H379.598ZM384.52 62.3102C384.52 60.4871 384.874 58.8998 385.582 57.5485C386.311 56.1972 387.309 55.1677 388.574 54.4598C389.861 53.7306 391.33 53.3659 392.982 53.3659C395.17 53.3659 396.961 53.9129 398.355 55.0068C399.771 56.1007 400.65 57.57 400.993 59.4146H399.481C399.202 57.9132 398.473 56.7334 397.293 55.8755C396.135 55.0175 394.698 54.5885 392.982 54.5885C391.695 54.5885 390.526 54.8781 389.475 55.4572C388.424 56.0149 387.577 56.8836 386.933 58.0633C386.311 59.2216 386 60.6372 386 62.3102C386 64.0047 386.311 65.4311 386.933 66.5894C387.577 67.7476 388.424 68.6163 389.475 69.1954C390.526 69.7746 391.695 70.0641 392.982 70.0641C394.698 70.0641 396.135 69.6352 397.293 68.7772C398.473 67.9192 399.202 66.7395 399.481 65.2381H400.993C400.65 67.0612 399.771 68.5305 398.355 69.6459C396.939 70.7612 395.148 71.3189 392.982 71.3189C391.33 71.3189 389.861 70.9543 388.574 70.225C387.309 69.4957 386.311 68.4554 385.582 67.1041C384.874 65.7314 384.52 64.1334 384.52 62.3102ZM413.319 53.2372C415.378 53.2372 417.062 53.8807 418.37 55.1677C419.678 56.4332 420.333 58.3207 420.333 60.8302V71.0615H418.917V60.9268C418.917 58.8462 418.391 57.259 417.34 56.165C416.289 55.0497 414.863 54.492 413.061 54.492C411.174 54.492 409.662 55.0926 408.525 56.2937C407.409 57.4949 406.852 59.2752 406.852 61.6346V71.0615H405.404V47.2529H406.852V57.2911C407.345 55.9827 408.171 54.9853 409.329 54.299C410.487 53.5911 411.817 53.2372 413.319 53.2372Z" fill="white"/>
<path d="M324.66 101.23C323.566 101.23 322.609 101.037 321.789 100.651C320.968 100.265 320.325 99.7424 319.858 99.0828C319.408 98.4233 319.151 97.6913 319.086 96.887H320.22C320.349 97.7718 320.759 98.56 321.451 99.2517C322.159 99.9435 323.229 100.289 324.66 100.289C325.497 100.289 326.221 100.137 326.832 99.8309C327.459 99.5252 327.942 99.107 328.28 98.5761C328.618 98.0452 328.787 97.4581 328.787 96.8146C328.787 95.9941 328.586 95.3426 328.183 94.86C327.797 94.3774 327.307 94.0155 326.711 93.7742C326.132 93.5328 325.344 93.2755 324.347 93.002C323.253 92.7124 322.368 92.4229 321.692 92.1333C321.033 91.8437 320.47 91.4013 320.003 90.8061C319.553 90.1948 319.328 89.3663 319.328 88.3207C319.328 87.5163 319.537 86.7844 319.955 86.1248C320.389 85.4492 321.001 84.9183 321.789 84.5322C322.577 84.1461 323.486 83.9531 324.516 83.9531C326.012 83.9531 327.218 84.3231 328.135 85.0631C329.052 85.8031 329.599 86.712 329.776 87.7898H328.618C328.521 87.3555 328.304 86.9131 327.966 86.4627C327.644 86.0122 327.178 85.6422 326.567 85.3527C325.971 85.047 325.256 84.8942 324.419 84.8942C323.293 84.8942 322.344 85.2079 321.572 85.8353C320.799 86.4466 320.413 87.267 320.413 88.2966C320.413 89.117 320.614 89.7766 321.017 90.2752C321.419 90.7579 321.909 91.1279 322.489 91.3852C323.084 91.6266 323.88 91.8759 324.878 92.1333C325.987 92.4389 326.864 92.7365 327.508 93.0261C328.167 93.2996 328.722 93.742 329.173 94.3533C329.639 94.9485 329.872 95.7609 329.872 96.7904C329.872 97.5465 329.671 98.2624 329.269 98.9381C328.867 99.6137 328.272 100.169 327.484 100.603C326.711 101.021 325.77 101.23 324.66 101.23ZM338.89 101.255C337.668 101.255 336.566 100.981 335.584 100.434C334.603 99.8872 333.831 99.107 333.268 98.0935C332.721 97.0639 332.447 95.8655 332.447 94.4981C332.447 93.1468 332.729 91.9644 333.292 90.9509C333.855 89.9213 334.627 89.1411 335.609 88.6103C336.606 88.0633 337.716 87.7898 338.939 87.7898C340.161 87.7898 341.263 88.0633 342.244 88.6103C343.226 89.1411 343.99 89.9133 344.537 90.9268C345.1 91.9402 345.381 93.1307 345.381 94.4981C345.381 95.8655 345.1 97.0639 344.537 98.0935C343.974 99.107 343.194 99.8872 342.196 100.434C341.215 100.981 340.113 101.255 338.89 101.255ZM338.89 100.289C339.839 100.289 340.724 100.08 341.545 99.662C342.381 99.2276 343.049 98.5761 343.547 97.7074C344.046 96.8387 344.295 95.7689 344.295 94.4981C344.295 93.2433 344.046 92.1815 343.547 91.3129C343.049 90.4442 342.389 89.8007 341.569 89.3824C340.748 88.9481 339.864 88.7309 338.914 88.7309C337.965 88.7309 337.08 88.9481 336.26 89.3824C335.456 89.8007 334.804 90.4442 334.306 91.3129C333.807 92.1815 333.557 93.2433 333.557 94.4981C333.557 95.7689 333.799 96.8387 334.281 97.7074C334.78 98.5761 335.432 99.2276 336.236 99.662C337.056 100.08 337.941 100.289 338.89 100.289ZM349.762 83.2051V101.062H348.676V83.2051H349.762ZM364.818 87.9587V101.062H363.732V98.2141C363.362 99.2115 362.743 99.9757 361.874 100.507C361.022 101.021 360.04 101.279 358.93 101.279C357.37 101.279 356.091 100.804 355.094 99.855C354.112 98.8898 353.622 97.4661 353.622 95.5839V87.9587H354.683V95.5115C354.683 97.072 355.078 98.2704 355.866 99.107C356.654 99.9274 357.724 100.338 359.075 100.338C360.491 100.338 361.617 99.8872 362.453 98.9863C363.306 98.0854 363.732 96.7502 363.732 94.9807V87.9587H364.818ZM370.393 88.8998V97.5626C370.393 98.5278 370.57 99.1954 370.924 99.5654C371.278 99.9194 371.906 100.096 372.806 100.096H374.278V101.062H372.638C371.495 101.062 370.651 100.796 370.104 100.265C369.573 99.7183 369.308 98.8174 369.308 97.5626V88.8998H367.329V87.9587H369.308V84.6287H370.393V87.9587H374.278V88.8998H370.393ZM377.697 85.039C377.44 85.039 377.223 84.9585 377.046 84.7977C376.869 84.6207 376.78 84.3874 376.78 84.0979C376.78 83.8244 376.869 83.5992 377.046 83.4222C377.223 83.2453 377.44 83.1568 377.697 83.1568C377.955 83.1568 378.172 83.2453 378.349 83.4222C378.526 83.5992 378.614 83.8244 378.614 84.0979C378.614 84.3874 378.526 84.6207 378.349 84.7977C378.172 84.9585 377.955 85.039 377.697 85.039ZM378.228 87.9587V101.062H377.142V87.9587H378.228ZM387.976 101.255C386.753 101.255 385.651 100.981 384.67 100.434C383.689 99.8872 382.916 99.107 382.353 98.0935C381.806 97.0639 381.533 95.8655 381.533 94.4981C381.533 93.1468 381.814 91.9644 382.378 90.9509C382.941 89.9213 383.713 89.1411 384.694 88.6103C385.691 88.0633 386.801 87.7898 388.024 87.7898C389.247 87.7898 390.349 88.0633 391.33 88.6103C392.311 89.1411 393.075 89.9133 393.622 90.9268C394.185 91.9402 394.467 93.1307 394.467 94.4981C394.467 95.8655 394.185 97.0639 393.622 98.0935C393.059 99.107 392.279 99.8872 391.282 100.434C390.3 100.981 389.198 101.255 387.976 101.255ZM387.976 100.289C388.925 100.289 389.81 100.08 390.63 99.662C391.467 99.2276 392.134 98.5761 392.633 97.7074C393.132 96.8387 393.381 95.7689 393.381 94.4981C393.381 93.2433 393.132 92.1815 392.633 91.3129C392.134 90.4442 391.475 89.8007 390.654 89.3824C389.834 88.9481 388.949 88.7309 388 88.7309C387.051 88.7309 386.166 88.9481 385.346 89.3824C384.541 89.8007 383.89 90.4442 383.391 91.3129C382.892 92.1815 382.643 93.2433 382.643 94.4981C382.643 95.7689 382.884 96.8387 383.367 97.7074C383.866 98.5761 384.517 99.2276 385.321 99.662C386.142 100.08 387.027 100.289 387.976 100.289ZM403.673 87.6933C405.234 87.6933 406.505 88.1759 407.486 89.1411C408.467 90.0902 408.958 91.5059 408.958 93.3881V101.062H407.896V93.4605C407.896 91.9 407.502 90.7096 406.714 89.8892C405.925 89.0526 404.856 88.6344 403.504 88.6344C402.089 88.6344 400.955 89.0848 400.102 89.9857C399.266 90.8866 398.847 92.2218 398.847 93.9913V101.062H397.761V87.9587H398.847V90.7337C399.217 89.7524 399.829 89.0044 400.681 88.4896C401.55 87.9587 402.547 87.6933 403.673 87.6933ZM417.163 101.255C415.699 101.255 414.501 100.933 413.568 100.289C412.651 99.6459 412.136 98.7289 412.024 97.5385H413.134C413.214 98.3911 413.6 99.0667 414.292 99.5654C415 100.064 415.957 100.313 417.163 100.313C418.161 100.313 418.949 100.064 419.528 99.5654C420.123 99.0507 420.421 98.4233 420.421 97.6833C420.421 97.1685 420.26 96.7502 419.938 96.4285C419.633 96.0907 419.247 95.8333 418.78 95.6563C418.314 95.4794 417.678 95.2863 416.874 95.0772C415.909 94.8198 415.128 94.5705 414.533 94.3292C413.938 94.0718 413.431 93.6937 413.013 93.195C412.595 92.6963 412.386 92.0287 412.386 91.1922C412.386 90.5809 412.571 90.0179 412.941 89.5031C413.311 88.9722 413.825 88.554 414.485 88.2483C415.144 87.9426 415.892 87.7898 416.729 87.7898C418.096 87.7898 419.198 88.1357 420.035 88.8274C420.887 89.5031 421.346 90.4442 421.41 91.6507H420.324C420.276 90.782 419.938 90.0742 419.311 89.5272C418.684 88.9803 417.815 88.7068 416.705 88.7068C415.772 88.7068 415 88.9481 414.388 89.4307C413.777 89.9133 413.471 90.5005 413.471 91.1922C413.471 91.8035 413.64 92.3022 413.978 92.6883C414.332 93.0583 414.758 93.3478 415.257 93.557C415.772 93.75 416.447 93.9592 417.284 94.1844C418.201 94.4257 418.933 94.667 419.48 94.9083C420.043 95.1335 420.517 95.4713 420.904 95.9218C421.29 96.3561 421.483 96.9433 421.483 97.6833C421.483 98.3589 421.298 98.9702 420.928 99.5172C420.558 100.064 420.043 100.49 419.383 100.796C418.724 101.102 417.984 101.255 417.163 101.255Z" fill="#727272"/>
</g>
<defs>
<clipPath id="clip0_1904_324">
<rect width="429" height="108" fill="white"/>
</clipPath>
</defs>
</svg>
