<svg width="477" height="477" viewBox="0 0 477 477" fill="none" xmlns="http://www.w3.org/2000/svg">
<path d="M105.867 106.024C142.919 71.2084 186.293 55.192 236.153 58.1454C286.894 61.1555 327.079 85.4641 361.327 125.051C373.476 111.59 384.471 99.3791 396.29 86.3161C395.136 84.7826 393.871 83.2491 392.662 81.7724L384.691 83.817L386.45 74.389C362.756 47.5814 333.071 28.1572 300.967 16.4005L292.171 28.1004L294.59 14.2423C272.216 6.74523 248.852 2.93992 225.544 2.76953L222.08 19.5243L215.923 2.88312C188.382 3.90545 161.225 10.0394 136.487 21.3985C135.498 21.8529 134.563 22.4209 133.628 22.8752L134.563 33.5528L127.471 26.5101L86.6814 53.7153L101.634 94.665C102.624 98.4703 103.998 102.219 105.757 105.911L105.867 106.024Z" fill="#FF3839"/>
<path d="M164.303 91.3141C149.516 98.5839 139.401 104.888 132.749 111.647V110.625L114.058 124.653L137.422 175.429C137.587 175.713 137.696 175.997 137.916 176.394C189.041 111.988 266.114 120.564 307.893 173.327C320.427 161.059 332.906 148.848 345.165 136.807C303.77 78.7054 227.687 60.19 164.303 91.3141Z" fill="#FF3839"/>
<path d="M351.377 362.571C316.469 399.658 274.14 418.401 224.169 418.571C173.374 418.742 131.759 397.046 95.2572 359.731C83.9327 373.93 73.6527 386.822 62.6581 400.624C63.9225 402.1 65.2418 403.52 66.5612 404.94L74.3674 402.384L73.158 411.869C98.3906 437.143 129.176 454.636 161.94 464.348L170.021 452.137L168.426 466.166C191.185 472.129 214.769 474.458 238.022 473.152L240.496 456.227L247.588 472.413C275.019 469.63 301.736 461.849 325.759 448.9C326.749 448.389 327.629 447.764 328.508 447.196L326.914 436.632L334.39 443.22L373.476 413.46L356.105 373.532C354.895 369.784 353.301 366.149 351.322 362.571H351.377Z" fill="#FF3839"/>
<path d="M145.777 308.16C134.013 321.223 122.249 334.229 110.705 347.008C155.508 402.384 232.525 416.072 293.93 380.916C308.278 372.737 342.087 344.453 342.087 344.453L315.754 295.268C315.535 294.984 315.425 294.7 315.205 294.359C267.983 361.889 190.526 358.197 145.723 308.16H145.777Z" fill="#FF3839"/>
<path d="M72.3334 66.1536C60.2943 78.5918 50.0143 91.1437 41.3835 103.696L54.8519 116.872L36.9307 110.341C19.4492 137.432 9.22423 164.353 4.11173 190.252L16.9754 197.352L2.62745 198.772C-2.21018 229.782 0.0986878 259.089 5.76092 284.988L34.4019 282.886L7.52006 292.541C14.8315 321.791 26.101 346.213 35.4464 363.138L48.585 351.439L38.7448 368.932C46.2211 381.767 51.7734 389.037 51.7734 389.037L152.869 240.8L72.2784 66.1536H72.3334Z" fill="#FF3839"/>
<path d="M185.082 217.341C185.082 213.54 185.905 210.159 187.549 207.199C189.194 204.202 191.478 201.882 194.402 200.237C197.362 198.556 200.706 197.715 204.433 197.715C209.002 197.715 212.912 198.921 216.165 201.333C219.417 203.746 221.592 207.035 222.688 211.201H212.382C211.615 209.593 210.518 208.369 209.093 207.528C207.704 206.687 206.115 206.267 204.324 206.267C201.437 206.267 199.098 207.272 197.307 209.282C195.516 211.292 194.621 213.978 194.621 217.341C194.621 220.703 195.516 223.389 197.307 225.399C199.098 227.409 201.437 228.414 204.324 228.414C206.115 228.414 207.704 227.994 209.093 227.153C210.518 226.313 211.615 225.088 212.382 223.48H222.688C221.592 227.646 219.417 230.936 216.165 233.348C212.912 235.723 209.002 236.911 204.433 236.911C200.706 236.911 197.362 236.089 194.402 234.444C191.478 232.763 189.194 230.442 187.549 227.482C185.905 224.522 185.082 221.141 185.082 217.341ZM253.481 198.154V205.664H237.803V213.777H249.534V221.068H237.803V236.637H228.429V198.154H253.481ZM286.091 198.154V205.664H275.895V236.637H266.521V205.664H256.324V198.154H286.091ZM289.206 217.341C289.206 213.54 290.028 210.159 291.673 207.199C293.317 204.202 295.601 201.882 298.525 200.237C301.485 198.556 304.829 197.715 308.557 197.715C313.125 197.715 317.035 198.921 320.288 201.333C323.541 203.746 325.715 207.035 326.811 211.201H316.506C315.738 209.593 314.642 208.369 313.216 207.528C311.828 206.687 310.238 206.267 308.447 206.267C305.56 206.267 303.221 207.272 301.43 209.282C299.64 211.292 298.744 213.978 298.744 217.341C298.744 220.703 299.64 223.389 301.43 225.399C303.221 227.409 305.56 228.414 308.447 228.414C310.238 228.414 311.828 227.994 313.216 227.153C314.642 226.313 315.738 225.088 316.506 223.48H326.811C325.715 227.646 323.541 230.936 320.288 233.348C317.035 235.723 313.125 236.911 308.557 236.911C304.829 236.911 301.485 236.089 298.525 234.444C295.601 232.763 293.317 230.442 291.673 227.482C290.028 224.522 289.206 221.141 289.206 217.341ZM198.148 264.444C199.585 264.712 200.803 265.443 201.802 266.636C202.801 267.83 203.301 269.219 203.301 270.803C203.301 272.094 202.972 273.263 202.314 274.311C201.68 275.334 200.742 276.151 199.5 276.76C198.257 277.344 196.771 277.637 195.041 277.637H186.197V252.091H194.785C197.368 252.091 199.329 252.688 200.669 253.882C202.034 255.076 202.716 256.623 202.716 258.523C202.716 260.107 202.289 261.398 201.437 262.397C200.584 263.372 199.488 264.054 198.148 264.444ZM188.755 263.384H194.712C196.442 263.384 197.77 262.982 198.696 262.178C199.646 261.349 200.121 260.217 200.121 258.779C200.121 257.366 199.646 256.257 198.696 255.453C197.77 254.649 196.406 254.247 194.603 254.247H188.755V263.384ZM194.858 275.481C196.71 275.481 198.148 275.042 199.171 274.165C200.219 273.288 200.742 272.082 200.742 270.547C200.742 269.012 200.194 267.794 199.098 266.892C198.026 265.966 196.576 265.504 194.749 265.504H188.755V275.481H194.858ZM210.561 261.228C211.122 259.985 211.975 259.023 213.12 258.341C214.289 257.658 215.714 257.317 217.395 257.317V259.985H216.701C214.849 259.985 213.363 260.485 212.243 261.483C211.122 262.482 210.561 264.151 210.561 266.49V277.637H208.003V257.683H210.561V261.228ZM220.074 267.623C220.074 265.577 220.476 263.786 221.28 262.251C222.109 260.692 223.242 259.498 224.679 258.669C226.141 257.817 227.786 257.39 229.613 257.39C231.513 257.39 233.146 257.829 234.51 258.706C235.899 259.583 236.898 260.704 237.507 262.068V257.683H240.065V277.637H237.507V273.215C236.873 274.579 235.862 275.712 234.474 276.613C233.109 277.491 231.477 277.929 229.576 277.929C227.773 277.929 226.141 277.503 224.679 276.65C223.242 275.797 222.109 274.591 221.28 273.032C220.476 271.473 220.074 269.67 220.074 267.623ZM237.507 267.66C237.507 266.052 237.178 264.639 236.52 263.42C235.862 262.202 234.961 261.264 233.816 260.606C232.695 259.949 231.452 259.62 230.088 259.62C228.675 259.62 227.408 259.936 226.287 260.57C225.167 261.203 224.277 262.129 223.619 263.347C222.986 264.541 222.669 265.966 222.669 267.623C222.669 269.256 222.986 270.693 223.619 271.936C224.277 273.154 225.167 274.092 226.287 274.75C227.408 275.383 228.675 275.7 230.088 275.7C231.452 275.7 232.695 275.371 233.816 274.713C234.961 274.055 235.862 273.117 236.52 271.899C237.178 270.681 237.507 269.268 237.507 267.66ZM255.261 257.317C257.649 257.317 259.598 258.06 261.108 259.547C262.619 261.008 263.374 263.14 263.374 265.942V277.637H260.852V266.234C260.852 264.066 260.304 262.409 259.208 261.264C258.136 260.119 256.662 259.547 254.786 259.547C252.861 259.547 251.326 260.156 250.181 261.374C249.036 262.592 248.463 264.383 248.463 266.746V277.637H245.905V257.683H248.463V261.081C249.097 259.863 250.011 258.937 251.204 258.304C252.398 257.646 253.75 257.317 255.261 257.317ZM267.862 267.623C267.862 265.577 268.277 263.786 269.105 262.251C269.933 260.692 271.066 259.498 272.504 258.669C273.966 257.817 275.61 257.39 277.437 257.39C279.192 257.39 280.775 257.817 282.188 258.669C283.601 259.522 284.637 260.631 285.295 261.995V250.593H287.853V277.637H285.295V273.178C284.686 274.567 283.687 275.712 282.298 276.613C280.909 277.491 279.277 277.929 277.401 277.929C275.574 277.929 273.929 277.503 272.467 276.65C271.03 275.797 269.897 274.591 269.068 273.032C268.264 271.473 267.862 269.67 267.862 267.623ZM285.295 267.66C285.295 266.052 284.966 264.639 284.308 263.42C283.65 262.202 282.749 261.264 281.604 260.606C280.483 259.949 279.24 259.62 277.876 259.62C276.463 259.62 275.196 259.936 274.075 260.57C272.954 261.203 272.065 262.129 271.407 263.347C270.774 264.541 270.457 265.966 270.457 267.623C270.457 269.256 270.774 270.693 271.407 271.936C272.065 273.154 272.954 274.092 274.075 274.75C275.196 275.383 276.463 275.7 277.876 275.7C279.24 275.7 280.483 275.371 281.604 274.713C282.749 274.055 283.65 273.117 284.308 271.899C284.966 270.681 285.295 269.268 285.295 267.66ZM308.64 252.091V254.211H301.55V277.637H298.992V254.211H291.866V252.091H308.64ZM330.733 266.636C330.733 267.514 330.709 268.184 330.66 268.646H314.105C314.178 270.157 314.544 271.448 315.201 272.52C315.859 273.592 316.724 274.409 317.796 274.969C318.868 275.505 320.038 275.773 321.305 275.773C322.961 275.773 324.35 275.371 325.471 274.567C326.616 273.763 327.371 272.679 327.737 271.314H330.441C329.954 273.263 328.906 274.859 327.298 276.102C325.714 277.32 323.717 277.929 321.305 277.929C319.429 277.929 317.747 277.515 316.261 276.687C314.775 275.834 313.606 274.64 312.753 273.105C311.924 271.546 311.51 269.731 311.51 267.66C311.51 265.589 311.924 263.774 312.753 262.214C313.581 260.655 314.739 259.461 316.225 258.633C317.711 257.805 319.404 257.39 321.305 257.39C323.205 257.39 324.862 257.805 326.275 258.633C327.712 259.461 328.809 260.582 329.564 261.995C330.344 263.384 330.733 264.931 330.733 266.636ZM328.139 266.563C328.163 265.077 327.858 263.81 327.225 262.763C326.616 261.715 325.775 260.923 324.703 260.387C323.631 259.851 322.462 259.583 321.195 259.583C319.295 259.583 317.674 260.192 316.334 261.41C314.994 262.629 314.251 264.346 314.105 266.563H328.139ZM334.244 267.66C334.244 265.589 334.659 263.786 335.487 262.251C336.315 260.692 337.46 259.498 338.922 258.669C340.384 257.817 342.053 257.39 343.929 257.39C346.39 257.39 348.412 257.999 349.996 259.218C351.604 260.436 352.639 262.093 353.102 264.188H350.361C350.02 262.75 349.277 261.63 348.132 260.826C347.011 259.997 345.61 259.583 343.929 259.583C342.589 259.583 341.383 259.888 340.311 260.497C339.239 261.106 338.386 262.019 337.753 263.238C337.144 264.432 336.839 265.906 336.839 267.66C336.839 269.414 337.144 270.9 337.753 272.118C338.386 273.336 339.239 274.25 340.311 274.859C341.383 275.468 342.589 275.773 343.929 275.773C345.61 275.773 347.011 275.371 348.132 274.567C349.277 273.739 350.02 272.593 350.361 271.132H353.102C352.639 273.178 351.604 274.823 349.996 276.065C348.388 277.308 346.365 277.929 343.929 277.929C342.053 277.929 340.384 277.515 338.922 276.687C337.46 275.834 336.315 274.64 335.487 273.105C334.659 271.546 334.244 269.731 334.244 267.66ZM367.329 257.317C368.839 257.317 370.191 257.634 371.385 258.267C372.603 258.901 373.554 259.875 374.236 261.191C374.942 262.482 375.296 264.066 375.296 265.942V277.637H372.774V266.234C372.774 264.066 372.226 262.409 371.129 261.264C370.057 260.119 368.583 259.547 366.707 259.547C364.783 259.547 363.248 260.156 362.103 261.374C360.957 262.592 360.385 264.383 360.385 266.746V277.637H357.827V250.593H360.385V261.081C361.018 259.888 361.944 258.962 363.162 258.304C364.405 257.646 365.794 257.317 367.329 257.317Z" fill="white"/>
</svg>
